<svg xmlns="http://www.w3.org/2000/svg" width="279" height="241" viewBox="0 0 279 241" version="1.1"><path d="M 63.477 5.935 C 46.208 8.656, 26.355 18.974, 16.211 30.498 C 5.437 42.738, 1.481 53.788, 2.249 69.494 C 3.050 85.843, 8.683 97.554, 22.784 112.181 C 37.258 127.196, 57.271 139.048, 85.500 149.324 C 107.425 157.305, 130.732 161.009, 140 157.985 C 141.497 157.496, 139.640 157.389, 135.369 157.717 C 107.777 159.837, 54.498 139.420, 29.547 117.165 C 22.146 110.563, 14.071 100.663, 10.419 93.715 C 6.607 86.460, 3.032 74.017, 3.012 67.934 C 2.996 63.089, 4.786 53.302, 6.505 48.836 C 10.600 38.198, 24.085 23.691, 34.892 18.298 C 37.976 16.759, 40.747 15.169, 41.050 14.765 C 41.352 14.361, 44.277 13.084, 47.550 11.927 C 78.614 0.948, 105.592 8.605, 131.490 35.751 C 134.246 38.639, 136.950 40.969, 137.500 40.929 C 138.050 40.889, 140.300 38.725, 142.500 36.122 C 152.615 24.151, 172.295 11.685, 186.001 8.568 C 195.610 6.382, 208.922 6.557, 218.590 8.995 C 232.653 12.541, 249.638 22.402, 254.813 30.024 C 257.845 34.491, 257.329 39.208, 253.141 45.294 C 244.820 57.389, 209.406 77.036, 176.094 88.039 C 169.717 90.145, 165.193 91.898, 166.041 91.934 C 169.375 92.077, 189.617 84.905, 202.500 79.017 C 233.259 64.958, 252.769 51.409, 256.564 41.470 C 260.426 31.358, 254.427 23.602, 235.367 14.065 C 213.817 3.283, 192.522 2.734, 171.625 12.423 C 162.841 16.495, 150.383 25.705, 142.770 33.753 L 137.039 39.811 129.393 31.953 C 117.794 20.034, 104.669 11.855, 91.115 8.099 C 82.770 5.787, 70.508 4.826, 63.477 5.935 M 80.359 79.508 C 80.040 80.337, 80.505 82.121, 81.390 83.473 C 83.583 86.820, 83.412 87.402, 80.777 85.557 C 77.890 83.534, 74 83.522, 74 85.535 C 74 86.380, 74.727 88.180, 75.615 89.535 C 77.254 92.036, 76.340 92.940, 74.267 90.867 C 72.801 89.401, 70 90.480, 70 92.511 C 70 93.377, 72.117 96.348, 74.704 99.114 C 78.550 103.227, 78.926 103.924, 76.767 102.940 C 71.796 100.675, 68.772 104.684, 72.750 108.266 C 78.141 113.121, 100.593 120.134, 109.898 119.869 L 114.500 119.738 109 118.997 C 94.072 116.987, 77.417 111.329, 73.417 106.908 C 70.409 103.584, 72.817 103.137, 80.096 105.668 C 84.001 107.026, 87.414 107.919, 87.681 107.652 C 87.948 107.386, 85.766 105.631, 82.833 103.754 C 76.915 99.966, 70.637 93.397, 71.539 91.937 C 72.244 90.796, 75.108 92.199, 80.162 96.159 C 82.176 97.737, 85.551 99.712, 87.662 100.546 C 91.375 102.015, 91.432 102.006, 89.416 100.282 C 84.487 96.068, 80.611 93.523, 79.594 93.833 C 78.992 94.017, 78.825 93.842, 79.222 93.445 C 79.619 93.047, 78.829 91.397, 77.465 89.777 C 76.102 88.156, 75.215 86.461, 75.494 86.009 C 76.196 84.873, 79.452 85.849, 81.662 87.858 C 85.951 91.756, 92.531 96, 94.287 96 C 95.630 96, 94.775 94.890, 91.340 92.174 C 86.366 88.241, 81 81.958, 81 80.067 C 81 77.524, 84.414 79.600, 95.742 89.030 C 97.211 90.253, 105.762 94, 107.083 94 C 108.756 94, 108.038 91.978, 104.500 86.724 C 98.173 77.328, 100.746 76.273, 110.097 84.429 C 113.520 87.414, 118.612 91.127, 121.411 92.679 C 126.289 95.383, 127.059 95.500, 140 95.500 C 148.134 95.500, 155.608 94.958, 158.804 94.137 C 166.932 92.049, 164.363 91.763, 153.892 93.590 C 141.834 95.694, 129.202 95.045, 122.698 91.988 C 120.170 90.800, 115.064 87.146, 111.353 83.870 C 104.319 77.661, 100.772 76.602, 100.208 80.542 C 100.047 81.665, 101.318 84.519, 103.031 86.885 C 104.745 89.250, 105.904 91.430, 105.606 91.728 C 104.539 92.794, 98.765 89.614, 91.314 83.856 C 83.459 77.786, 81.342 76.946, 80.359 79.508 M 264.716 87.220 C 260.434 89.444, 257.137 91.471, 257.389 91.723 C 257.641 91.975, 261.498 90.281, 265.960 87.960 C 270.422 85.639, 274.262 83.929, 274.494 84.161 C 275.347 85.014, 272.067 101.944, 269.660 109.111 C 267.084 116.782, 266.846 119.718, 269.275 113.858 C 271.139 109.362, 274.701 94.765, 275.524 88.250 C 276.357 81.662, 275.559 81.586, 264.716 87.220 M 245.500 95.948 C 216.479 108.082, 183.804 116.136, 152.187 118.948 C 144.059 119.671, 143.891 119.730, 149.576 119.861 C 161.430 120.133, 188.240 115.479, 210 109.372 C 222.973 105.731, 246.906 97.136, 253 93.930 C 258.629 90.968, 255.207 91.889, 245.500 95.948 M 264.582 121.763 C 257.037 137.634, 235.258 157.816, 199.522 182.054 C 185.093 191.840, 167.737 206.117, 150.657 222.250 L 136.814 235.325 129.596 227.913 C 121.246 219.338, 103.206 203.261, 91.154 193.653 C 81.639 186.068, 66.074 175.593, 65.368 176.299 C 65.108 176.559, 66.606 177.813, 68.697 179.085 C 83.195 187.903, 107.758 207.928, 126.220 225.977 C 131.566 231.204, 136.375 235.625, 136.907 235.802 C 137.438 235.979, 142.514 231.549, 148.187 225.957 C 161.808 212.529, 186.575 192.056, 201.500 181.886 C 228.301 163.624, 244.887 149.880, 254.841 137.687 C 260.653 130.569, 267.652 119.319, 266.800 118.467 C 266.557 118.224, 265.559 119.707, 264.582 121.763 M 122.750 120.737 C 125.638 120.939, 130.363 120.939, 133.250 120.737 C 136.137 120.535, 133.775 120.370, 128 120.370 C 122.225 120.370, 119.862 120.535, 122.750 120.737 M 158.975 146.523 C 155.597 149.628, 150.508 153.293, 147.667 154.666 C 144.296 156.295, 143.522 156.937, 145.439 156.515 C 148.863 155.760, 152.358 153.440, 160.078 146.799 C 165.226 142.369, 169 140.720, 169 142.899 C 169 143.394, 167.227 146.431, 165.060 149.649 C 162.485 153.472, 161.458 155.842, 162.097 156.487 C 163.426 157.829, 172.509 152.988, 180.203 146.838 C 183.531 144.177, 186.648 142, 187.127 142 C 188.720 142, 188.032 144.568, 185.533 147.955 C 184.176 149.794, 183.346 151.751, 183.688 152.304 C 184.029 152.857, 183.828 153.011, 183.239 152.648 C 182.651 152.284, 180.669 153.205, 178.835 154.693 C 177.001 156.182, 175.312 157.535, 175.083 157.700 C 174.854 157.865, 174.923 158.256, 175.236 158.569 C 175.952 159.285, 179.343 157.395, 184.500 153.405 C 188.450 150.350, 192.334 148, 193.434 148 C 195.590 148, 192.956 151.779, 186.878 157.406 C 178.209 165.432, 180.106 166.322, 190.009 158.875 C 191.929 157.432, 194.512 155.729, 195.750 155.090 C 199.973 152.912, 198.324 157.094, 192.982 162.110 C 189.694 165.196, 188.401 167.021, 189.232 167.401 C 189.929 167.720, 189.600 167.780, 188.500 167.535 C 187.400 167.289, 185.375 167.727, 184 168.508 L 181.500 169.929 184.141 169.965 C 185.593 169.984, 188.743 169.069, 191.141 167.932 C 194.473 166.351, 194.804 166.014, 192.548 166.502 C 189.632 167.132, 189.654 167.078, 194.298 162.113 C 196.884 159.348, 199 156.418, 199 155.602 C 199 152.999, 196.897 152.700, 193.945 154.882 C 189.761 157.976, 189.444 157.490, 192.846 153.195 C 194.908 150.591, 195.584 148.945, 194.989 147.982 C 194.257 146.797, 193.512 146.881, 190.309 148.511 C 188.214 149.576, 186.142 150.616, 185.705 150.822 C 185.268 151.028, 185.828 149.690, 186.951 147.848 C 191.741 139.991, 188.006 138.759, 180.032 145.566 C 174.677 150.137, 163 156.750, 163 155.211 C 163 154.762, 164.345 152.566, 165.988 150.331 C 169.814 145.128, 170.320 141.624, 167.309 141.191 C 165.782 140.972, 163.254 142.589, 158.975 146.523 M 188 158.059 C 188 158.641, 188.450 158.840, 189 158.500 C 189.550 158.160, 190 157.684, 190 157.441 C 190 157.198, 189.550 157, 189 157 C 188.450 157, 188 157.477, 188 158.059 M 197.118 166.750 C 197.674 170.270, 192.323 173.693, 180.500 177.379 C 167.177 181.534, 153.985 183.378, 138.500 183.251 C 122.792 183.122, 98.570 180.868, 86.500 178.411 C 82.100 177.515, 77.375 176.560, 76 176.289 C 74.625 176.017, 70.640 174.941, 67.145 173.898 C 59.289 171.552, 59.285 171.552, 61.513 174.014 C 62.616 175.233, 64.040 175.805, 65.121 175.462 C 66.103 175.150, 69.285 175.601, 72.192 176.464 C 86.857 180.819, 116.186 184.210, 139 184.188 C 153.805 184.174, 158.271 183.791, 168 181.699 C 181.703 178.753, 189.334 175.989, 194.895 171.961 C 198.686 169.215, 200.360 166, 198 166 C 197.450 166, 197.053 166.338, 197.118 166.750" stroke="none" fill="#d58987" fill-rule="evenodd"/><path d="M 59 8.530 C 52.439 10.044, 41.822 13.732, 41.050 14.765 C 40.747 15.169, 37.976 16.759, 34.892 18.298 C 24.085 23.691, 10.600 38.198, 6.505 48.836 C 4.786 53.302, 2.996 63.089, 3.012 67.934 C 3.018 69.895, 3.868 74.938, 4.900 79.141 C 10.368 101.410, 29.360 121.657, 58.500 136.284 C 96.588 155.402, 130.575 162.377, 147.617 154.575 C 150.465 153.271, 155.567 149.656, 158.956 146.540 C 168.452 137.811, 173.281 140.414, 165.988 150.331 C 164.345 152.566, 163 154.762, 163 155.211 C 163 156.750, 174.677 150.137, 180.032 145.566 C 188.006 138.759, 191.741 139.991, 186.951 147.848 C 185.828 149.690, 185.268 151.028, 185.705 150.822 C 186.142 150.616, 188.214 149.576, 190.309 148.511 C 193.512 146.881, 194.257 146.797, 194.989 147.982 C 195.584 148.945, 194.908 150.591, 192.846 153.195 C 191.188 155.288, 189.420 157, 188.916 157 C 188.412 157, 188 157.478, 188 158.062 C 188 158.646, 190.033 157.664, 192.518 155.880 C 195.757 153.554, 197.342 152.942, 198.117 153.717 C 199.874 155.474, 198.259 158.484, 192.845 163.549 C 190.047 166.166, 188.599 167.940, 189.629 167.492 C 190.658 167.043, 193.188 166.477, 195.250 166.233 C 200.411 165.623, 200.259 168.076, 194.895 171.961 C 189.334 175.989, 181.703 178.753, 168 181.699 C 158.271 183.791, 153.805 184.174, 139 184.188 C 116.306 184.210, 86.450 180.770, 72.435 176.519 C 63.984 173.955, 64.286 174.794, 74.180 181.363 C 90.090 191.927, 114.799 212.677, 129.608 227.913 L 136.814 235.325 150.657 222.250 C 167.737 206.117, 185.093 191.840, 199.522 182.054 C 235.591 157.590, 256.271 138.370, 264.860 121.326 C 268.292 114.515, 272.045 102.320, 273.528 93.156 C 274.291 88.441, 274.761 84.428, 274.573 84.239 C 274.384 84.051, 268.665 86.572, 261.865 89.843 C 239.598 100.553, 211.356 110.070, 187.470 114.914 C 166.668 119.133, 155.226 120.216, 130.500 120.310 C 107.357 120.398, 106.107 120.301, 95.500 117.605 C 79.958 113.653, 71 108.976, 71 104.814 C 71 102.295, 73.540 101.469, 76.767 102.940 C 78.926 103.924, 78.550 103.227, 74.704 99.114 C 72.117 96.348, 70 93.377, 70 92.511 C 70 90.480, 72.801 89.401, 74.267 90.867 C 76.340 92.940, 77.254 92.036, 75.615 89.535 C 74.727 88.180, 74 86.380, 74 85.535 C 74 83.522, 77.890 83.534, 80.777 85.557 C 83.412 87.402, 83.583 86.820, 81.390 83.473 C 79.634 80.793, 80.117 78, 82.337 78 C 83.106 78, 87.146 80.635, 91.314 83.856 C 98.765 89.614, 104.539 92.794, 105.606 91.728 C 105.904 91.430, 104.745 89.250, 103.031 86.885 C 101.318 84.519, 100.047 81.665, 100.208 80.542 C 100.772 76.602, 104.319 77.661, 111.353 83.870 C 120.286 91.756, 125.218 93.972, 135.449 94.694 C 149.873 95.712, 173.732 90.236, 195.120 80.999 C 233.985 64.215, 255.122 49.167, 256.693 37.165 C 257.587 30.327, 249.988 22.734, 234.500 14.990 C 219.242 7.360, 201.588 5.023, 186.001 8.568 C 172.295 11.685, 152.615 24.151, 142.500 36.122 C 140.300 38.725, 138.050 40.889, 137.500 40.929 C 136.950 40.969, 134.246 38.639, 131.490 35.751 C 116.636 20.181, 102.197 11.551, 85.201 8.082 C 78.401 6.694, 66.037 6.905, 59 8.530 M 79 93.500 C 79 93.775, 79.225 94, 79.500 94 C 79.775 94, 80 93.775, 80 93.500 C 80 93.225, 79.775 93, 79.500 93 C 79.225 93, 79 93.225, 79 93.500 M 183 152.500 C 183 152.775, 183.225 153, 183.500 153 C 183.775 153, 184 152.775, 184 152.500 C 184 152.225, 183.775 152, 183.500 152 C 183.225 152, 183 152.225, 183 152.500" stroke="none" fill="#ee412b" fill-rule="evenodd"/></svg>